<svg version="1.1" id="Layer_1" xmlns:x="&ns_extend;" xmlns:i="&ns_ai;" xmlns:graph="&ns_graphs;" xmlns="http://www.w3.org/2000/svg" xmlns:xlink="http://www.w3.org/1999/xlink" x="0px" y="0px" width="24px" height="24px" viewBox="0 0 24 24" enable-background="new 0 0 24 24" xml:space="preserve"><metadata><sfw  xmlns="&ns_sfw;"><slices></slices><sliceSourceBounds  width="505" height="984" bottomLeftOrigin="true" x="0" y="-120"></sliceSourceBounds></sfw></metadata><g><g><g><path d="M12,24C5.4,24,0,18.6,0,12S5.4,0,12,0s12,5.4,12,12S18.6,24,12,24z M12,2C6.5,2,2,6.5,2,12s4.5,10,10,10s10-4.5,10-10 S17.5,2,12,2z"/></g></g><g><g><path d="M15,14c-0.3,0-0.5-0.1-0.7-0.3L12,11.4l-2.3,2.3c-0.4,0.4-1,0.4-1.4,0s-0.4-1,0-1.4l3-3c0.4-0.4,1-0.4,1.4,0l3,3 c0.4,0.4,0.4,1,0,1.4C15.5,13.9,15.3,14,15,14z"/></g></g></g></svg>